<svg height="512" viewBox="0 0 52 58" width="512" xmlns="http://www.w3.org/2000/svg"><g id="Page-1" fill="none" fill-rule="evenodd"><g id="118---Forward" fill="rgb(0,0,0)" fill-rule="nonzero" transform="translate(-1 -1)"><path id="Shape" d="m47.407 16.888c-.6895758-.850221-1.9345564-.9880674-2.7934252-.3092928s-1.0124397 1.9219134-.3445748 2.7892928c3.0807919 3.8740753 4.749496 8.6823135 4.731 13.632.0026274 11.8141896-9.3263118 21.5212288-21.1312876 21.9877345-11.8049759.4665058-21.87082731-8.4740955-22.80049193-20.2516507-.92966461-11.7775552 7.60880963-22.1866941 19.34077953-23.5780838l-2.709 2.323c-.8056088.7261278-.8856677 1.9620327-.180472 2.7860268.7051957.823994 1.9386364.9357715 2.780472.2519732l7-6c.4436324-.3799686.6989854-.93488888.6989854-1.519s-.255353-1.13903145-.6989854-1.519l-7-6c-.5398529-.48659126-1.3011827-.64202535-1.9885682-.40598871-.6873856.23603664-1.1926248.82638919-1.3196681 1.5419814-.1270434.71559221.1441072 1.44378185.7082363 1.90200731l3.019 2.587c-14.0095034 1.2338222-24.49848671 13.3838574-23.67431552 27.4234174s12.66271062 24.8788917 26.72035112 24.4650745c14.0576406-.4138171 25.2380745-11.9307622 25.2349644-25.9944919.0213828-5.8502981-1.9513574-11.5332573-5.593-16.112z"/><path id="Shape" d="m34.481 16.3c.3452166.4030142.8364453.6523138 1.3655374.6930132.5290922.0406994 1.0526699-.1305382 1.4554626-.4760132l7-6c.4436324-.3799686.6989854-.93488888.6989854-1.519s-.255353-1.13903145-.6989854-1.519l-7-6c-.5398529-.48659126-1.3011827-.64202535-1.9885682-.40598871-.6873856.23603664-1.1926248.82638919-1.3196681 1.5419814-.1270434.71559221.1441072 1.44378185.7082363 1.90200731l5.225 4.483-5.227 4.481c-.8385691.7181488-.9365954 1.9799573-.219 2.819z"/><path id="Shape" d="m16 41c-1.1045695 0-2 .8954305-2 2s.8954305 2 2 2h6c1.1045695 0 2-.8954305 2-2s-.8954305-2-2-2h-1v-17c-.0001355-.7374384-.4060631-1.4149703-1.056234-1.7629549-.6501708-.3479847-1.4390817-.3099547-2.052766.0989549l-3 2c-.8950793.5999232-1.1539833 1.8011109-.5855116 2.7164878.5684717.9153768 1.7599419 1.2158463 2.6945116.6795122v13.268z"/><path id="Shape" d="m32 22c-2.7614237 0-5 2.2385763-5 5v13c0 2.7614237 2.2385763 5 5 5h3c2.7614237 0 5-2.2385763 5-5v-13c0-2.7614237-2.2385763-5-5-5zm4 5v13c0 .5522847-.4477153 1-1 1h-3c-.5522847 0-1-.4477153-1-1v-13c0-.5522847.4477153-1 1-1h3c.5522847 0 1 .4477153 1 1z"/></g></g></svg>