<svg height="426.66667pt" viewBox="0 0 426.66667 426.66667" width="426.66667pt" xmlns="http://www.w3.org/2000/svg"><path d="m410.667969 181.332031h-106.667969c-32.363281 0-58.667969-26.300781-58.667969-58.664062v-106.667969c0-8.832031 7.167969-16 16-16s16 7.167969 16 16v106.667969c0 14.699219 11.96875 26.664062 26.667969 26.664062h106.667969c8.832031 0 16 7.167969 16 16s-7.167969 16-16 16zm0 0"/><path d="m261.332031 426.667969c-8.832031 0-16-7.167969-16-16v-106.667969c0-32.363281 26.304688-58.667969 58.667969-58.667969h106.667969c8.832031 0 16 7.167969 16 16s-7.167969 16-16 16h-106.667969c-14.699219 0-26.667969 11.96875-26.667969 26.667969v106.667969c0 8.832031-7.167969 16-16 16zm0 0"/><path d="m122.667969 181.332031h-106.667969c-8.832031 0-16-7.167969-16-16s7.167969-16 16-16h106.667969c14.699219 0 26.664062-11.964843 26.664062-26.664062v-106.667969c0-8.832031 7.167969-16 16-16s16 7.167969 16 16v106.667969c0 32.363281-26.300781 58.664062-58.664062 58.664062zm0 0"/><path d="m165.332031 426.667969c-8.832031 0-16-7.167969-16-16v-106.667969c0-14.699219-11.964843-26.667969-26.664062-26.667969h-106.667969c-8.832031 0-16-7.167969-16-16s7.167969-16 16-16h106.667969c32.363281 0 58.664062 26.304688 58.664062 58.667969v106.667969c0 8.832031-7.167969 16-16 16zm0 0"/></svg>